<svg width="36" height="36" xmlns="http://www.w3.org/2000/svg"><g fill="none"><path d="M29.782 7.689a30.229 30.229 0 0 1-11.414-4.461L18.02 3l-.347.228c-3.472 2.23-7.378 3.778-11.414 4.46C5.52 7.872 5 8.555 5 9.374l.608 11.471c.173 2.823 1.562 5.417 3.776 7.01L17.977 34l8.637-6.19c2.257-1.594 3.646-4.189 3.776-7.011l.607-11.472a1.6 1.6 0 0 0-1.215-1.638z" stroke="#000"/><path d="M13.713 11.345A7.5 7.5 0 0 0 17.5 24.984V20.5h-2.84v-1h2.84v-1h-2.84v-1h2.72l-3.667-6.155zm.857-.516l3.404 5.713 3.558-5.66A7.467 7.467 0 0 0 18 10a7.468 7.468 0 0 0-3.43.829zm7.81.582L18.553 17.5h2.756v1H18.5v1h2.81v1H18.5v4.484a7.5 7.5 0 0 0 3.88-13.573zM18 26a8.5 8.5 0 1 1 0-17 8.5 8.5 0 0 1 0 17z" fill="#4C4C4C"/></g></svg>