<svg width="484" height="324" xmlns="http://www.w3.org/2000/svg" xmlns:xlink="http://www.w3.org/1999/xlink"><defs><rect id="a" width="460" height="300" rx="6"/><filter x="-5%" y="-5.7%" width="112.2%" height="118.7%" filterUnits="objectBoundingBox" id="b"><feOffset dy="1" in="SourceAlpha" result="shadowOffsetOuter1"/><feGaussianBlur stdDeviation=".5" in="shadowOffsetOuter1" result="shadowBlurOuter1"/><feColorMatrix values="0 0 0 0 0 0 0 0 0 0.0823529412 0 0 0 0 0.250980392 0 0 0 0.14 0" in="shadowBlurOuter1" result="shadowMatrixOuter1"/><feOffset dy="2" in="SourceAlpha" result="shadowOffsetOuter2"/><feGaussianBlur stdDeviation="2.5" in="shadowOffsetOuter2" result="shadowBlurOuter2"/><feColorMatrix values="0 0 0 0 0 0 0 0 0 0.0823529412 0 0 0 0 0.250980392 0 0 0 0.05 0" in="shadowBlurOuter2" result="shadowMatrixOuter2"/><feOffset dx="5" dy="8" in="SourceAlpha" result="shadowOffsetOuter3"/><feGaussianBlur stdDeviation="6" in="shadowOffsetOuter3" result="shadowBlurOuter3"/><feColorMatrix values="0 0 0 0 0.678431373 0 0 0 0 0.729411765 0 0 0 0 0.8 0 0 0 0.25 0" in="shadowBlurOuter3" result="shadowMatrixOuter3"/><feMerge><feMergeNode in="shadowMatrixOuter1"/><feMergeNode in="shadowMatrixOuter2"/><feMergeNode in="shadowMatrixOuter3"/></feMerge></filter><filter x="-3.6%" y="-3.5%" width="109.3%" height="114.3%" filterUnits="objectBoundingBox" id="c"><feMorphology radius="1" in="SourceAlpha" result="shadowSpreadInner1"/><feGaussianBlur stdDeviation="1" in="shadowSpreadInner1" result="shadowBlurInner1"/><feOffset dy="1" in="shadowBlurInner1" result="shadowOffsetInner1"/><feComposite in="shadowOffsetInner1" in2="SourceAlpha" operator="arithmetic" k2="-1" k3="1" result="shadowInnerInner1"/><feColorMatrix values="0 0 0 0 1 0 0 0 0 1 0 0 0 0 1 0 0 0 1 0" in="shadowInnerInner1" result="shadowMatrixInner1"/><feGaussianBlur stdDeviation="2.5" in="SourceAlpha" result="shadowBlurInner2"/><feOffset dy="-2" in="shadowBlurInner2" result="shadowOffsetInner2"/><feComposite in="shadowOffsetInner2" in2="SourceAlpha" operator="arithmetic" k2="-1" k3="1" result="shadowInnerInner2"/><feColorMatrix values="0 0 0 0 0 0 0 0 0 0 0 0 0 0 0 0 0 0 0.04 0" in="shadowInnerInner2" result="shadowMatrixInner2"/><feMerge><feMergeNode in="shadowMatrixInner1"/><feMergeNode in="shadowMatrixInner2"/></feMerge></filter><path id="e" d="M0 0h460v18H0z"/><filter x="-.1%" y="-2.8%" width="100.2%" height="105.6%" filterUnits="objectBoundingBox" id="f"><feOffset dy="-1" in="SourceAlpha" result="shadowOffsetInner1"/><feComposite in="shadowOffsetInner1" in2="SourceAlpha" operator="arithmetic" k2="-1" k3="1" result="shadowInnerInner1"/><feColorMatrix values="0 0 0 0 0 0 0 0 0 0 0 0 0 0 0 0 0 0 0.0515172101 0" in="shadowInnerInner1"/></filter><rect id="g" x="8" y="29" width="142" height="259" rx="8"/><rect id="h" x="159" y="29" width="142" height="259" rx="8"/><rect id="i" x="310" y="29" width="142" height="259" rx="8"/><path d="M0 6.836V14c0 3.866 10.297 7 23 7s23-3.134 23-7V6.836" id="j"/><ellipse id="k" cx="23" cy="7" rx="23" ry="7"/><path d="M0 6.836V14c0 3.866 10.297 7 23 7s23-3.134 23-7V6.836" id="l"/><ellipse id="m" cx="23" cy="7" rx="23" ry="7"/><path d="M0 6.836V14c0 3.866 10.297 7 23 7s23-3.134 23-7V6.836" id="n"/><ellipse id="o" cx="23" cy="7" rx="23" ry="7"/></defs><g fill="none" fill-rule="evenodd"><g transform="translate(7 4)"><mask id="d" fill="#fff"><use xlink:href="#a"/></mask><use fill="#000" filter="url(#b)" xlink:href="#a"/><use fill="#FFF" xlink:href="#a"/><use fill="#000" filter="url(#c)" xlink:href="#a"/><g mask="url(#d)"><use fill="#F9F9F9" xlink:href="#e"/><use fill="#000" filter="url(#f)" xlink:href="#e"/><circle fill="#DDD" cx="11" cy="9" r="3"/><circle fill="#DDD" cx="21" cy="9" r="3"/><circle fill="#DDD" cx="31" cy="9" r="3"/></g></g><g transform="translate(7 4)"><use fill="#F3F3F3" xlink:href="#g"/><rect stroke="#ECECEC" x="8.5" y="29.5" width="141" height="258" rx="8"/></g><g transform="translate(7 4)"><use fill="#F3F3F3" xlink:href="#h"/><rect stroke="#ECECEC" x="159.5" y="29.5" width="141" height="258" rx="8"/></g><g transform="translate(7 4)"><use fill="#F3F3F3" xlink:href="#i"/><rect stroke="#ECECEC" x="310.5" y="29.5" width="141" height="258" rx="8"/></g><g transform="translate(33 230)"><rect fill="#4A7E0D" width="38" height="16" rx="8"/><circle fill="#FFF" cx="9" cy="8" r="6"/></g><g transform="translate(33 101)"><path stroke="#000" d="M.053 111h106.844v-6.25H.053z"/><ellipse stroke="#000" cx="53.44" cy="22.028" rx="8.064" ry="8.053"/><path stroke="#000" d="M6.86 45.672v3.012h4.32v4.239h4.317v32.616h-4.538v4.993H6.915v5.358h24.533v-5.35h-3.057v-4.934h-4.58v-32.63h4.423v-4.325h4.228v-3.11zm33.822 0v3.012H45v4.239h4.317v32.616H44.78v4.993h-4.044v5.358H65.27v-5.35h-3.058v-4.934h-4.58v-32.63h4.423v-4.325h4.228v-3.11zM1.565 36.624h103.82v-6.019L53.475 4 1.565 30.605zm72.938 9.048v3.012h4.319v4.239h4.317v32.616H78.6v4.993h-4.044v5.358H99.09v-5.35h-3.058v-4.934h-4.579v-32.63h4.422v-4.325h4.228v-3.11z"/><path stroke="#417505" d="M57.179.79l52.854 27.818V49.44h-6.96v45.767h8.126v15.641"/><path stroke="#417505" d="M4.205 43.147h98.54v-3.254H4.205zm0 58.411h98.54v-3.255H4.205z"/></g><text font-family="PingFangSC-Regular, PingFang SC" font-size="14" fill="#9B9B9B" transform="translate(33 75)"><tspan x="56" y="168">协助开户</tspan></text><text font-family="PingFangSC-Regular, PingFang SC" font-size="14" fill="#9B9B9B" transform="translate(33 75)"><tspan x="0" y="15">合作银行</tspan></text><text font-family="PingFangSC-Regular, PingFang SC" font-size="14" fill="#9B9B9B" transform="translate(177 76)"><tspan x="88" y="157">真实</tspan> <tspan x="74" y="179">归属方</tspan></text><text font-family="PingFangSC-Regular, PingFang SC" font-size="14" fill="#9B9B9B" transform="translate(177 76)"><tspan x="0" y="15">资金</tspan></text><g transform="translate(181 121)"><use fill="#F3F3F3" xlink:href="#j"/><path stroke="#000" d="M.5 7.336V14c0 3.43 10.087 6.5 22.5 6.5s22.5-3.07 22.5-6.5V7.336H.5z"/></g><g transform="translate(181 121)"><use fill="#F3F3F3" xlink:href="#k"/><ellipse stroke="#000" cx="23" cy="7" rx="22.5" ry="6.5"/></g><g transform="translate(177 110)"><use fill="#F3F3F3" xlink:href="#l"/><path stroke="#000" d="M.5 7.336V14c0 3.43 10.087 6.5 22.5 6.5s22.5-3.07 22.5-6.5V7.336H.5z"/></g><g transform="translate(177 110)"><use fill="#F3F3F3" xlink:href="#m"/><ellipse stroke="#000" cx="23" cy="7" rx="22.5" ry="6.5"/></g><g transform="translate(184 101)"><use fill="#F3F3F3" xlink:href="#n"/><path stroke="#000" d="M.5 7.336V14c0 3.43 10.087 6.5 22.5 6.5s22.5-3.07 22.5-6.5V7.336H.5z"/></g><g transform="translate(184 101)"><use fill="#F3F3F3" xlink:href="#o"/><ellipse stroke="#000" cx="23" cy="7" rx="22.5" ry="6.5"/></g><path fill="#417505" d="M203.611 103.53l1.493 4.493h-4.487l-.593.626h5.526l-.788 1.226h-5.9l-.593.626h6.09l-1.263 1.965h3.345l.964-1.965h6.125l.115-.626h-5.933l.602-1.226h5.557l.116-.626h-4.517l6.586-4.493h-2.232l-6.317 4.105-1.664-4.105z"/><path d="M200 114.482v7.072M196 114v6.554M192 113v6.554m-4-8.072v7.072M204 115v6.554m4-6.554v6.554" stroke="#000"/><g stroke-linecap="round" stroke-linejoin="round"><path d="M261.055 183c5.264 0 9.527-4.251 9.527-9.5s-4.263-9.5-9.527-9.5c-5.264 0-9.528 4.251-9.528 9.5s4.264 9.5 9.528 9.5m2.25 4.86a.253.253 0 0 1 .058.036c.14.128-.7 2.175-.786 2.292-.087.117-2.549.193-2.802 0-.195-.148-.891-2.108-.788-2.292a.178.178 0 0 1 .062-.056c-6.69.555-17.049 3.703-17.049 9.41V202h38.11v-4.75c0-5.638-10.109-8.778-16.804-9.39m1.316 9.667c-.07.277-2.696 3.158-3.508 3.13-.722-.024-3.424-2.7-3.494-3.13-.07-.428 1.653-5.962 2.1-6.176.449-.215 2.588-.135 2.802 0 .215.135 2.17 5.9 2.1 6.176" stroke="#000" fill-rule="nonzero"/><path d="M280.918 182.127c4.166 0 7.54-3.365 7.54-7.52 0-4.154-3.374-7.519-7.54-7.519-4.167 0-7.541 3.365-7.541 7.52 0 4.154 3.374 7.52 7.54 7.52m.001 3.759c-2.167 0-5.264.467-8.088 1.398 5.34 1.91 9.973 5.057 9.973 9.434v.447H296v-3.76c0-5-10.049-7.52-15.082-7.52" stroke="#417505"/></g><path d="M195.181 158.138L186 152c0 27.062 21.938 49 49 49m39.06-52.567L284 152c0-27.062-21.938-49-49-49" stroke="#417505"/><path d="M339.5 83.5h13.65v15H339.5zm26.45 0h13.55v14.9h-13.55zm-26.45 25.1h13.55v14.9H339.5zm26.35-.1h13.65v15h-13.65zm-6.683-13.15v15.377m0 6.298v7.152m0-40.152v7.152" stroke="#000"/><g stroke="#417505"><path d="M388.5 214.5h54v38h-54z"/><path d="M388.125 219.5h54.5m-54.5 11h54.5m-51.25 8h18.25m-18.25 5h9.75" stroke-linecap="square"/><path d="M436.125 219.625l-5.75 10.75m-.25-10.75l-5.75 10.75"/></g><path stroke="#417505" d="M389.469 102.035h26.835v35.435"/><path stroke="#000" d="M381.304 237.47h-26.835v-35.435M339.5 148.5h103v36h-103z"/><text font-family="PingFangSC-Regular, PingFang SC" font-size="14" fill="#417505" transform="translate(7 4)"><tspan x="369" y="168">服务</tspan></text><path d="M339 103h8.54m3.46 0h8.54m4.46 0h15.5" stroke="#000"/></g></svg>