<svg width="36" height="36" xmlns="http://www.w3.org/2000/svg"><g fill="none" fill-rule="evenodd"><path d="M4.76 26.985C7.637 31.219 12.493 34 18 34c5.494 0 10.34-2.769 13.222-6.987l-26.463-.028zM31.243 9.02C28.366 4.783 23.508 2 18 2 12.483 2 7.618 4.793 4.741 9.041l26.503-.02z" stroke="#000"/><path d="M13.047 27.034C14.128 31.24 15.943 34 18 34c2.057 0 3.872-2.76 4.953-6.967l-9.906.001zm9.927-17.987C21.895 4.795 20.07 2 18 2c-2.067 0-3.89 2.787-4.969 7.03l9.943.017z" stroke="#000"/><path d="M24 18.972l.777.823-3.182 3.182-.795-.795 2.195-2.21H5v-1h18.988l.006-.006.006.005zm-9.995-3H31v1H13.005l-.006.005-.795-.795L15.386 13l.795.795-2.176 2.176z" fill="#4C4C4C"/></g></svg>