<svg width="36" height="36" xmlns="http://www.w3.org/2000/svg"><g fill="none" fill-rule="evenodd"><path d="M0 0h36v36H0z"/><path d="M18 17.882L31.764 11 18 4.118 4.236 11 18 17.882zM2 11l16-8 16 8-16 8-16-8z" fill="#FFF" fill-rule="nonzero"/><path fill="#FFF" fill-rule="nonzero" opacity=".7" d="M28.783 16.569l1.123-.556L34 18.06l-16 8-16-8L6.12 16l1.12.558-3.004 1.502L18 24.94l13.764-6.881z"/><path fill="#FFF" fill-rule="nonzero" opacity=".7" d="M28.783 23.569l1.123-.556L34 25.06l-16 8-16-8L6.12 23l1.12.558-3.004 1.502L18 31.94l13.764-6.881z"/></g></svg>